<?xml version="1.0"?>
<svg width="512" height="499.1" xmlns="http://www.w3.org/2000/svg" xmlns:svg="http://www.w3.org/2000/svg" version="1.1" xml:space="preserve">
 <style type="text/css">.st0{fill:#F4EA29;}
 .st1{fill:#1C1C20;}
 .st2{不透明度:0.1;塗りつぶし:#040000;}
 .st3{不透明度:0.1;塗りつぶし:#FFFFFF;}
 .st4{opacity:6.000000e-02;塗りつぶし:#FFFFFF;}</style>
 <g class="layer">
  <title>レイヤ 1</title>
  <rect fill="#ffff00" height="18" id="svg_13" stroke="#ffff00" stroke-linecap="round" width="178" x="7.5" y="461.9"/>
  <g id="svg_1" transform="matrix(0.950995 -0.309205 0.309205 0.950995 -57.6189 107.551)">
   <path class="st0" d="m506.12,142.94l-82.13,-70.63l33.26,-28.6c2.52,-2.17 6.67,-2.17 9.29,0l72.84,62.72c2.52,2.17 2.52,5.74 0,7.99l-33.26,28.53l0,-0.01z" fill="rgb(28, 28, 32)" id="svg_2" stroke="#000000" stroke-linecap="round"/>
   <polygon class="st0" fill="#ffff00" id="svg_3" points="116.50226497650146,429.02225971221924 79.7219762802124,417.3929567337036 116.50226497650146,385.7612428665161 141.6534719467163,407.39176654815674 " stroke="#000000" stroke-linecap="round"/>
   <path class="st1" d="m524.25,125.96l-80.5,-69.23c-4.69,-4.03 -12.17,-4.03 -16.86,0l-276.48,237.78c-4.69,4.03 -4.69,10.47 0,14.5l3.51,3.03l-13.35,11.47c-9.1,7.75 -14.07,17.75 -15.06,27.91c-0.72,7.75 -5.14,14.96 -11.53,20.47l-8.38,7.21c-1.27,1.08 -1.27,2.87 0,3.96l39.03,33.72c1.27,1.08 3.34,1.08 4.59,0l8.38,-7.21c6.41,-5.5 14.79,-9.31 23.8,-9.93c11.91,-0.77 23.44,-5.12 32.54,-12.94l13.35,-11.47l3.51,3.03c4.69,4.03 12.17,4.03 16.86,0l276.48,-237.78c4.78,-4.03 4.78,-10.54 0.09,-14.5l0.01,-0.01z" fill="rgb(28, 28, 32)" id="svg_4"/>
   <path class="st2" d="m525.96,127.36l-17.4,-14.96l-293.16,252.05l-61.21,-52.64l-15.51,13.26l73.56,63.19l15.15,-13.02l5.14,4.42c3.7,3.18 9.82,3.18 13.52,0l279.91,-240.64c3.7,-3.18 3.7,-8.46 0,-11.63l0.01,-0.02z" id="svg_5"/>
   <g id="svg_6">
    <path class="st3" d="m442.12,55.25c-3.79,-3.26 -9.82,-3.18 -13.52,0l-279.82,240.64c-3.7,3.18 -3.79,8.38 0,11.63l17.4,14.96l293.34,-252.28l-17.4,-14.96l0,0.01z" id="svg_7"/>
    <path class="st3" d="m146.7,346.45c-6.13,-1.08 -12.27,3.26 -13.71,9.62c-1.44,6.36 2.26,12.4 8.38,13.42c6.13,1.08 12.27,-3.26 13.71,-9.62c1.53,-6.36 -2.26,-12.32 -8.38,-13.42z" id="svg_8"/>
   </g>
   <polygon class="st4" id="svg_9" points="123.26335048675537,423.2076234817505 116.50226497650146,429.02225971221924 79.7219762802124,417.315411567688 86.48305416107178,411.50077533721924 "/>
  </g>
 </g>
</svg>