<!--?xml version="1.0" encoding="iso-8859-1"?-->
<!-- Generator: Adobe Illustrator 22.1.0, SVG Export Plug-In . SVG Version: 6.00 Build 0)  -->
<svg version="1.1" id="_x34_" xmlns="http://www.w3.org/2000/svg" xmlns:xlink="http://www.w3.org/1999/xlink" x="0px" y="0px" viewBox="0 0 512 499.1" style="opacity: 1; width: 256px;" xml:space="preserve">
<style type="text/css">
	.st0{fill:#F4EA29;}
	.st1{fill:#1C1C20;}
	.st2{opacity:0.1;fill:#040000;}
	.st3{opacity:0.1;fill:#FFFFFF;}
	.st4{opacity:6.000000e-02;fill:#FFFFFF;}
</style>
<g>
	<path class="st0" d="M473,130.1L381.9,39l36.9-36.9c2.8-2.8,7.4-2.8,10.3,0L509.9,83c2.8,2.8,2.8,7.4,0,10.3L473,130.1z" style="fill: rgb(0, 0, 0);"></path>
	<polygon class="st0" points="40.8,499.1 0,484.1 40.8,443.3 68.7,471.2 	" style="fill: rgb(0, 0, 0);"></polygon>
	<path class="st1" d="M493.1,108.2l-89.3-89.3c-5.2-5.2-13.5-5.2-18.7,0L78.4,325.6c-5.2,5.2-5.2,13.5,0,18.7l3.9,3.9l-14.8,14.8
		C57.4,373,51.9,385.9,50.8,399c-0.8,10-5.7,19.3-12.8,26.4l-9.3,9.3c-1.4,1.4-1.4,3.7,0,5.1L72,483.3c1.4,1.4,3.7,1.4,5.1,0
		l9.3-9.3c7.1-7.1,16.4-12,26.4-12.8c13.2-1,26-6.6,36.1-16.7l14.8-14.8l3.9,3.9c5.2,5.2,13.5,5.2,18.7,0l306.7-306.7
		C498.3,121.7,498.3,113.3,493.1,108.2z" style="fill: rgb(28, 28, 32);"></path>
	<path class="st2" d="M495,110l-19.3-19.3L150.5,415.8l-67.9-67.9L65.4,365l81.6,81.5l16.8-16.8l5.7,5.7c4.1,4.1,10.9,4.1,15,0
		L495,125C499.1,120.9,499.1,114.1,495,110z"></path>
	<g>
		<path class="st3" d="M402,17c-4.2-4.2-10.9-4.1-15,0L76.6,327.4c-4.1,4.1-4.2,10.8,0,15l19.3,19.3L421.3,36.3L402,17z"></path>
		<path class="st3" d="M74.3,392.6c-6.8-1.4-13.6,4.2-15.2,12.4c-1.6,8.2,2.5,16,9.3,17.3c6.8,1.4,13.6-4.2,15.2-12.4
			C85.3,401.7,81.1,394,74.3,392.6z"></path>
	</g>
	<polygon class="st4" points="48.3,491.6 40.8,499.1 0,484 7.5,476.5 	"></polygon>
</g>
</svg>
