<?xml version="1.0"?>
<svg width="512" height="499.1" xmlns="http://www.w3.org/2000/svg" xmlns:svg="http://www.w3.org/2000/svg" _mstHash="1" _mstTextHash="526420791" version="1.1" xml:space="preserve">
 <style _isTranslated="1" type="text/css">.st0{fill:#F4EA29;}
 .st1{fill:#1C1C20;}
 .st2{不透明度:0.1;塗りつぶし:#040000;}
 .st3{不透明度:0.1;塗りつぶし:#FFFFFF;}
 .st4{opacity:6.000000e-02;塗りつぶし:#FFFFFF;}</style>
 <g _isTranslated="1" class="layer">
  <title _isTranslated="1">レイヤ 1</title>
  <rect fill="#ffff00" height="18" id="svg_13" stroke="#ffff00" stroke-linecap="round" width="137" x="6.5" y="461.9"/>
  <g _isTranslated="1" id="svg_1">
   <path _isTranslated="1" class="st0" d="m473.76,220.26l-70.64,-63.9l28.61,-25.88c2.17,-1.96 5.74,-1.96 7.99,0l62.65,56.75c2.17,1.96 2.17,5.19 0,7.23l-28.61,25.81z" fill="rgb(28, 28, 32)" id="svg_2" stroke="#000000" stroke-linecap="round"/>
   <polygon _isTranslated="1" class="st0" fill="#ffff00" id="svg_3" points="138.63593629864363,479.1000061035156 106.99999237060547,468.578060436932 138.63593629864363,439.9583762635375 160.26933408005016,459.52919118352656 " stroke="#000000" stroke-linecap="round"/>
   <path _isTranslated="1" class="st1" d="m489.35,204.9l-69.24,-62.64c-4.03,-3.65 -10.47,-3.65 -14.5,0l-237.81,215.14c-4.03,3.65 -4.03,9.47 0,13.12l3.02,2.74l-11.48,10.38c-7.83,7.01 -12.1,16.06 -12.95,25.25c-0.62,7.01 -4.42,13.54 -9.92,18.52l-7.21,6.52c-1.09,0.98 -1.09,2.6 0,3.58l33.57,30.51c1.09,0.98 2.87,0.98 3.95,0l7.21,-6.52c5.51,-4.98 12.72,-8.42 20.47,-8.98c10.24,-0.7 20.16,-4.63 27.99,-11.71l11.48,-10.38l3.02,2.74c4.03,3.65 10.47,3.65 14.5,0l237.81,-215.14c4.11,-3.65 4.11,-9.54 0.08,-13.12z" fill="rgb(28, 28, 32)" id="svg_4"/>
   <path _isTranslated="1" class="st2" d="m490.82,206.16l-14.97,-13.54l-252.16,228.05l-52.65,-47.63l-13.34,12l63.27,57.17l13.03,-11.78l4.42,4c3.18,2.88 8.45,2.88 11.63,0l240.76,-217.73c3.18,-2.88 3.18,-7.65 0,-10.52z" id="svg_5"/>
   <g _isTranslated="1" id="svg_6">
    <path _isTranslated="1" class="st3" d="m418.71,140.92c-3.26,-2.95 -8.45,-2.88 -11.63,0l-240.68,217.73c-3.18,2.88 -3.26,7.58 0,10.52l14.97,13.54l252.31,-228.26l-14.97,-13.54z" id="svg_7"/>
    <path _isTranslated="1" class="st3" d="m164.61,404.39c-5.27,-0.98 -10.55,2.95 -11.79,8.7c-1.24,5.75 1.94,11.22 7.21,12.14c5.27,0.98 10.55,-2.95 11.79,-8.7c1.32,-5.75 -1.94,-11.15 -7.21,-12.14z" id="svg_8"/>
   </g>
   <polygon _isTranslated="1" class="st4" id="svg_9" points="144.45136580977442,473.83904762685415 138.63593629864363,479.1000061035156 106.99999237060547,468.50791394106636 112.81542188173626,463.2469554644049 "/>
  </g>
 </g>
</svg>